# MagicaVoxel @ Ephtracy

# group
o 

# material
mtllib bluePotion.vox.mtl
usemtl palette

# normals
vn -1 0 0
vn 1 0 0
vn 0 0 1
vn 0 0 -1
vn 0 -1 0
vn 0 1 0

# texcoords
vt 0.00195312 0.5
vt 0.169922 0.5
vt 0.365234 0.5
vt 0.533203 0.5
vt 0.587891 0.5
vt 0.755859 0.5
vt 0.783203 0.5
vt 0.876953 0.5
vt 0.958984 0.5
vt 0.966797 0.5
vt 0.970703 0.5

# verts
v -1.1 0.6 0.6
v -1.1 0.6 0.1
v -1.1 1.9 0.6
v -1.1 1.9 0.1
v -1 0.4 0.6
v -1 0.4 0.1
v -1 0.6 0.6
v -1 0.6 0.1
v -1 1.9 0.6
v -1 1.9 0.1
v -1 2 0.6
v -1 2 0.1
v -0.9 0.3 0.6
v -0.9 0.3 0.1
v -0.9 0.4 0.6
v -0.9 0.4 0.1
v -0.9 2 0.6
v -0.9 2 0.1
v -0.9 2.1 0.6
v -0.9 2.1 0.1
v -0.7 0.1 0.6
v -0.7 0.1 0.1
v -0.7 0.3 0.6
v -0.7 0.3 0.1
v -0.6 0 0.6
v -0.6 0 0.1
v -0.6 0.1 0.6
v -0.6 0.1 0.1
v -0.5 2.4 0.6
v -0.5 2.4 0.1
v -0.5 2.8 0.6
v -0.5 2.8 0.1
v -0.4 2.3 0.6
v -0.4 2.3 0.1
v -0.4 2.4 0.6
v -0.4 2.4 0.1
v -0.3 2.1 0.6
v -0.3 2.1 0.1
v -0.3 2.3 0.6
v -0.3 2.3 0.1
v -0.3 2.8 0.6
v -0.3 2.8 0.1
v -0.3 3.1 0.6
v -0.3 3.1 0.1
v -0.2 3.1 0.6
v -0.2 3.1 0.1
v -0.2 3.2 0.6
v -0.2 3.2 0.1
v 0.2 3.1 0.6
v 0.2 3.1 0.1
v 0.2 3.2 0.6
v 0.2 3.2 0.1
v 0.3 2.1 0.6
v 0.3 2.1 0.1
v 0.3 2.3 0.6
v 0.3 2.3 0.1
v 0.3 2.8 0.6
v 0.3 2.8 0.1
v 0.3 3.1 0.6
v 0.3 3.1 0.1
v 0.4 2.3 0.6
v 0.4 2.3 0.1
v 0.4 2.4 0.6
v 0.4 2.4 0.1
v 0.5 2.4 0.6
v 0.5 2.4 0.1
v 0.5 2.8 0.6
v 0.5 2.8 0.1
v 0.6 0 0.6
v 0.6 0 0.1
v 0.6 0.1 0.6
v 0.6 0.1 0.1
v 0.7 0.1 0.6
v 0.7 0.1 0.1
v 0.7 0.3 0.6
v 0.7 0.3 0.1
v 0.9 0.3 0.6
v 0.9 0.3 0.1
v 0.9 0.4 0.6
v 0.9 0.4 0.1
v 0.9 2 0.6
v 0.9 2 0.1
v 0.9 2.1 0.6
v 0.9 2.1 0.1
v 1 0.4 0.6
v 1 0.4 0.1
v 1 0.6 0.6
v 1 0.6 0.1
v 1 1.9 0.6
v 1 1.9 0.1
v 1 2 0.6
v 1 2 0.1
v 1.1 0.6 0.6
v 1.1 0.6 0.1
v 1.1 1.9 0.6
v 1.1 1.9 0.1
v -1.1 0.6 0.6
v -1.1 1.9 0.6
v -1 0.4 0.6
v -1 0.6 0.6
v -1 0.8 0.6
v -1 0.9 0.6
v -1 1.3 0.6
v -1 1.4 0.6
v -1 1.5 0.6
v -1 1.6 0.6
v -1 1.8 0.6
v -1 1.9 0.6
v -1 2 0.6
v -0.9 0.3 0.6
v -0.9 0.4 0.6
v -0.9 0.6 0.6
v -0.9 0.7 0.6
v -0.9 0.8 0.6
v -0.9 0.9 0.6
v -0.9 1.2 0.6
v -0.9 1.3 0.6
v -0.9 1.4 0.6
v -0.9 1.6 0.6
v -0.9 1.7 0.6
v -0.9 1.8 0.6
v -0.9 1.9 0.6
v -0.9 2 0.6
v -0.9 2.1 0.6
v -0.8 0.6 0.6
v -0.8 0.7 0.6
v -0.8 0.8 0.6
v -0.8 1.2 0.6
v -0.8 1.7 0.6
v -0.8 1.8 0.6
v -0.7 0.1 0.6
v -0.7 0.3 0.6
v -0.7 0.4 0.6
v -0.7 0.6 0.6
v -0.7 0.7 0.6
v -0.7 1.3 0.6
v -0.7 1.5 0.6
v -0.7 1.8 0.6
v -0.7 1.9 0.6
v -0.7 2 0.6
v -0.6 0 0.6
v -0.6 0.1 0.6
v -0.6 0.3 0.6
v -0.6 0.5 0.6
v -0.6 0.6 0.6
v -0.6 1.5 0.6
v -0.6 1.6 0.6
v -0.5 2.4 0.6
v -0.5 2.8 0.6
v -0.4 2.3 0.6
v -0.4 2.4 0.6
v -0.4 2.7 0.6
v -0.3 2.1 0.6
v -0.3 2.3 0.6
v -0.3 2.6 0.6
v -0.3 2.7 0.6
v -0.3 2.8 0.6
v -0.3 3.1 0.6
v -0.2 2.1 0.6
v -0.2 2.3 0.6
v -0.2 2.5 0.6
v -0.2 2.6 0.6
v -0.2 2.7 0.6
v -0.2 2.9 0.6
v -0.2 3.1 0.6
v -0.2 3.2 0.6
v -0.1 2.6 0.6
v -0.1 2.7 0.6
v -0.1 2.8 0.6
v -0.1 2.9 0.6
v 0 2.1 0.6
v 0 2.3 0.6
v 0 2.4 0.6
v 0 2.5 0.6
v 0.1 0.4 0.6
v 0.1 0.5 0.6
v 0.1 0.7 0.6
v 0.1 1.3 0.6
v 0.1 1.6 0.6
v 0.1 1.8 0.6
v 0.1 1.9 0.6
v 0.1 2 0.6
v 0.1 2.6 0.6
v 0.1 2.7 0.6
v 0.1 2.8 0.6
v 0.1 2.9 0.6
v 0.2 2.1 0.6
v 0.2 2.3 0.6
v 0.2 2.5 0.6
v 0.2 2.6 0.6
v 0.2 2.7 0.6
v 0.2 2.9 0.6
v 0.2 3.1 0.6
v 0.2 3.2 0.6
v 0.3 2.1 0.6
v 0.3 2.3 0.6
v 0.3 2.6 0.6
v 0.3 2.7 0.6
v 0.3 2.8 0.6
v 0.3 3.1 0.6
v 0.4 2.3 0.6
v 0.4 2.4 0.6
v 0.4 2.7 0.6
v 0.5 2.4 0.6
v 0.5 2.8 0.6
v 0.6 0 0.6
v 0.6 0.1 0.6
v 0.6 0.3 0.6
v 0.6 0.5 0.6
v 0.6 0.6 0.6
v 0.6 1.5 0.6
v 0.6 1.6 0.6
v 0.7 0.1 0.6
v 0.7 0.3 0.6
v 0.8 0.6 0.6
v 0.8 0.7 0.6
v 0.8 0.8 0.6
v 0.8 1.2 0.6
v 0.8 1.7 0.6
v 0.8 1.8 0.6
v 0.9 0.3 0.6
v 0.9 0.4 0.6
v 0.9 0.6 0.6
v 0.9 0.7 0.6
v 0.9 0.8 0.6
v 0.9 0.9 0.6
v 0.9 1.2 0.6
v 0.9 1.3 0.6
v 0.9 1.4 0.6
v 0.9 1.6 0.6
v 0.9 1.7 0.6
v 0.9 1.8 0.6
v 0.9 1.9 0.6
v 0.9 2 0.6
v 0.9 2.1 0.6
v 1 0.4 0.6
v 1 0.6 0.6
v 1 0.8 0.6
v 1 0.9 0.6
v 1 1.3 0.6
v 1 1.4 0.6
v 1 1.5 0.6
v 1 1.6 0.6
v 1 1.8 0.6
v 1 1.9 0.6
v 1 2 0.6
v 1.1 0.6 0.6
v 1.1 1.9 0.6
v -1.1 0.6 0.1
v -1.1 1.9 0.1
v -1 0.4 0.1
v -1 0.6 0.1
v -1 0.8 0.1
v -1 0.9 0.1
v -1 1.3 0.1
v -1 1.4 0.1
v -1 1.5 0.1
v -1 1.6 0.1
v -1 1.8 0.1
v -1 1.9 0.1
v -1 2 0.1
v -0.9 0.3 0.1
v -0.9 0.4 0.1
v -0.9 0.6 0.1
v -0.9 0.7 0.1
v -0.9 0.8 0.1
v -0.9 0.9 0.1
v -0.9 1.2 0.1
v -0.9 1.3 0.1
v -0.9 1.4 0.1
v -0.9 1.6 0.1
v -0.9 1.7 0.1
v -0.9 1.8 0.1
v -0.9 1.9 0.1
v -0.9 2 0.1
v -0.9 2.1 0.1
v -0.8 0.6 0.1
v -0.8 0.7 0.1
v -0.8 0.8 0.1
v -0.8 1.2 0.1
v -0.8 1.7 0.1
v -0.8 1.8 0.1
v -0.7 0.1 0.1
v -0.7 0.3 0.1
v -0.7 0.4 0.1
v -0.7 0.6 0.1
v -0.7 0.7 0.1
v -0.7 1.3 0.1
v -0.7 1.5 0.1
v -0.7 1.8 0.1
v -0.7 1.9 0.1
v -0.7 2 0.1
v -0.6 0 0.1
v -0.6 0.1 0.1
v -0.6 0.3 0.1
v -0.6 0.5 0.1
v -0.6 0.6 0.1
v -0.6 1.5 0.1
v -0.6 1.6 0.1
v -0.5 2.4 0.1
v -0.5 2.8 0.1
v -0.4 2.3 0.1
v -0.4 2.4 0.1
v -0.4 2.7 0.1
v -0.3 2.1 0.1
v -0.3 2.3 0.1
v -0.3 2.6 0.1
v -0.3 2.7 0.1
v -0.3 2.8 0.1
v -0.3 3.1 0.1
v -0.2 2.1 0.1
v -0.2 2.3 0.1
v -0.2 2.5 0.1
v -0.2 2.6 0.1
v -0.2 2.7 0.1
v -0.2 2.9 0.1
v -0.2 3.1 0.1
v -0.2 3.2 0.1
v -0.1 2.6 0.1
v -0.1 2.7 0.1
v -0.1 2.8 0.1
v -0.1 2.9 0.1
v 0 2.1 0.1
v 0 2.3 0.1
v 0 2.4 0.1
v 0 2.5 0.1
v 0.1 0.4 0.1
v 0.1 0.5 0.1
v 0.1 0.7 0.1
v 0.1 1.3 0.1
v 0.1 1.6 0.1
v 0.1 1.8 0.1
v 0.1 1.9 0.1
v 0.1 2 0.1
v 0.1 2.6 0.1
v 0.1 2.7 0.1
v 0.1 2.8 0.1
v 0.1 2.9 0.1
v 0.2 2.1 0.1
v 0.2 2.3 0.1
v 0.2 2.5 0.1
v 0.2 2.6 0.1
v 0.2 2.7 0.1
v 0.2 2.9 0.1
v 0.2 3.1 0.1
v 0.2 3.2 0.1
v 0.3 2.1 0.1
v 0.3 2.3 0.1
v 0.3 2.6 0.1
v 0.3 2.7 0.1
v 0.3 2.8 0.1
v 0.3 3.1 0.1
v 0.4 2.3 0.1
v 0.4 2.4 0.1
v 0.4 2.7 0.1
v 0.5 2.4 0.1
v 0.5 2.8 0.1
v 0.6 0 0.1
v 0.6 0.1 0.1
v 0.6 0.3 0.1
v 0.6 0.5 0.1
v 0.6 0.6 0.1
v 0.6 1.5 0.1
v 0.6 1.6 0.1
v 0.7 0.1 0.1
v 0.7 0.3 0.1
v 0.8 0.6 0.1
v 0.8 0.7 0.1
v 0.8 0.8 0.1
v 0.8 1.2 0.1
v 0.8 1.7 0.1
v 0.8 1.8 0.1
v 0.9 0.3 0.1
v 0.9 0.4 0.1
v 0.9 0.6 0.1
v 0.9 0.7 0.1
v 0.9 0.8 0.1
v 0.9 0.9 0.1
v 0.9 1.2 0.1
v 0.9 1.3 0.1
v 0.9 1.4 0.1
v 0.9 1.6 0.1
v 0.9 1.7 0.1
v 0.9 1.8 0.1
v 0.9 1.9 0.1
v 0.9 2 0.1
v 0.9 2.1 0.1
v 1 0.4 0.1
v 1 0.6 0.1
v 1 0.8 0.1
v 1 0.9 0.1
v 1 1.3 0.1
v 1 1.4 0.1
v 1 1.5 0.1
v 1 1.6 0.1
v 1 1.8 0.1
v 1 1.9 0.1
v 1 2 0.1
v 1.1 0.6 0.1
v 1.1 1.9 0.1
v -0.6 0 0.6
v 0.6 0 0.6
v -0.6 0 0.1
v 0.6 0 0.1
v -0.7 0.1 0.6
v -0.6 0.1 0.6
v 0.6 0.1 0.6
v 0.7 0.1 0.6
v -0.7 0.1 0.1
v -0.6 0.1 0.1
v 0.6 0.1 0.1
v 0.7 0.1 0.1
v -0.9 0.3 0.6
v -0.7 0.3 0.6
v 0.7 0.3 0.6
v 0.9 0.3 0.6
v -0.9 0.3 0.1
v -0.7 0.3 0.1
v 0.7 0.3 0.1
v 0.9 0.3 0.1
v -1 0.4 0.6
v -0.9 0.4 0.6
v 0.9 0.4 0.6
v 1 0.4 0.6
v -1 0.4 0.1
v -0.9 0.4 0.1
v 0.9 0.4 0.1
v 1 0.4 0.1
v -1.1 0.6 0.6
v -1 0.6 0.6
v 1 0.6 0.6
v 1.1 0.6 0.6
v -1.1 0.6 0.1
v -1 0.6 0.1
v 1 0.6 0.1
v 1.1 0.6 0.1
v -0.4 2.3 0.6
v -0.3 2.3 0.6
v 0.3 2.3 0.6
v 0.4 2.3 0.6
v -0.4 2.3 0.1
v -0.3 2.3 0.1
v 0.3 2.3 0.1
v 0.4 2.3 0.1
v -0.5 2.4 0.6
v -0.4 2.4 0.6
v 0.4 2.4 0.6
v 0.5 2.4 0.6
v -0.5 2.4 0.1
v -0.4 2.4 0.1
v 0.4 2.4 0.1
v 0.5 2.4 0.1
v -1.1 1.9 0.6
v -1 1.9 0.6
v 1 1.9 0.6
v 1.1 1.9 0.6
v -1.1 1.9 0.1
v -1 1.9 0.1
v 1 1.9 0.1
v 1.1 1.9 0.1
v -1 2 0.6
v -0.9 2 0.6
v 0.9 2 0.6
v 1 2 0.6
v -1 2 0.1
v -0.9 2 0.1
v 0.9 2 0.1
v 1 2 0.1
v -0.9 2.1 0.6
v -0.3 2.1 0.6
v 0.3 2.1 0.6
v 0.9 2.1 0.6
v -0.9 2.1 0.1
v -0.3 2.1 0.1
v 0.3 2.1 0.1
v 0.9 2.1 0.1
v -0.5 2.8 0.6
v -0.3 2.8 0.6
v 0.3 2.8 0.6
v 0.5 2.8 0.6
v -0.5 2.8 0.1
v -0.3 2.8 0.1
v 0.3 2.8 0.1
v 0.5 2.8 0.1
v -0.3 3.1 0.6
v -0.2 3.1 0.6
v 0.2 3.1 0.6
v 0.3 3.1 0.6
v -0.3 3.1 0.1
v -0.2 3.1 0.1
v 0.2 3.1 0.1
v 0.3 3.1 0.1
v -0.2 3.2 0.6
v 0.2 3.2 0.6
v -0.2 3.2 0.1
v 0.2 3.2 0.1

# faces
f 3/8/1 2/8/1 1/8/1
f 4/8/1 2/8/1 3/8/1
f 7/8/1 6/8/1 5/8/1
f 8/8/1 6/8/1 7/8/1
f 11/8/1 10/8/1 9/8/1
f 12/8/1 10/8/1 11/8/1
f 15/8/1 14/8/1 13/8/1
f 16/8/1 14/8/1 15/8/1
f 19/8/1 18/8/1 17/8/1
f 20/8/1 18/8/1 19/8/1
f 23/8/1 22/8/1 21/8/1
f 24/8/1 22/8/1 23/8/1
f 27/8/1 26/8/1 25/8/1
f 28/8/1 26/8/1 27/8/1
f 31/8/1 30/8/1 29/8/1
f 32/8/1 30/8/1 31/8/1
f 35/8/1 34/8/1 33/8/1
f 36/8/1 34/8/1 35/8/1
f 39/8/1 38/8/1 37/8/1
f 40/8/1 38/8/1 39/8/1
f 43/8/1 42/8/1 41/8/1
f 44/8/1 42/8/1 43/8/1
f 47/8/1 46/8/1 45/8/1
f 48/8/1 46/8/1 47/8/1
f 49/8/2 50/8/2 51/8/2
f 51/8/2 50/8/2 52/8/2
f 53/8/2 54/8/2 55/8/2
f 55/8/2 54/8/2 56/8/2
f 57/8/2 58/8/2 59/8/2
f 59/8/2 58/8/2 60/8/2
f 61/8/2 62/8/2 63/8/2
f 63/8/2 62/8/2 64/8/2
f 65/8/2 66/8/2 67/8/2
f 67/8/2 66/8/2 68/8/2
f 69/8/2 70/8/2 71/8/2
f 71/8/2 70/8/2 72/8/2
f 73/8/2 74/8/2 75/8/2
f 75/8/2 74/8/2 76/8/2
f 77/8/2 78/8/2 79/8/2
f 79/8/2 78/8/2 80/8/2
f 81/8/2 82/8/2 83/8/2
f 83/8/2 82/8/2 84/8/2
f 85/8/2 86/8/2 87/8/2
f 87/8/2 86/8/2 88/8/2
f 89/8/2 90/8/2 91/8/2
f 91/8/2 90/8/2 92/8/2
f 93/8/2 94/8/2 95/8/2
f 95/8/2 94/8/2 96/8/2
f 100/8/3 98/8/3 97/8/3
f 101/8/3 98/8/3 100/8/3
f 102/8/3 98/8/3 101/8/3
f 103/8/3 98/8/3 102/8/3
f 104/8/3 98/8/3 103/8/3
f 105/8/3 98/8/3 104/8/3
f 106/8/3 98/8/3 105/8/3
f 107/8/3 98/8/3 106/8/3
f 108/8/3 98/8/3 107/8/3
f 111/8/3 100/8/3 99/8/3
f 112/7/3 101/7/3 100/7/3
f 112/8/3 100/8/3 111/8/3
f 113/7/3 101/7/3 112/7/3
f 114/8/3 102/8/3 101/8/3
f 114/7/3 101/7/3 113/7/3
f 115/2/3 103/2/3 102/2/3
f 115/8/3 102/8/3 114/8/3
f 116/2/3 103/2/3 115/2/3
f 117/8/3 104/8/3 103/8/3
f 117/2/3 103/2/3 116/2/3
f 118/6/3 105/6/3 104/6/3
f 118/8/3 104/8/3 117/8/3
f 119/7/3 106/7/3 105/7/3
f 119/11/3 107/11/3 106/11/3
f 120/11/3 107/11/3 119/11/3
f 121/2/3 108/2/3 107/2/3
f 121/11/3 107/11/3 120/11/3
f 122/8/3 109/8/3 108/8/3
f 122/2/3 108/2/3 121/2/3
f 123/8/3 109/8/3 122/8/3
f 125/7/3 113/7/3 112/7/3
f 125/7/3 112/7/3 111/7/3
f 126/8/3 114/8/3 113/8/3
f 126/7/3 113/7/3 125/7/3
f 127/2/3 116/2/3 115/2/3
f 127/8/3 114/8/3 126/8/3
f 127/2/3 115/2/3 114/2/3
f 128/8/3 117/8/3 116/8/3
f 128/2/3 116/2/3 127/2/3
f 129/11/3 121/11/3 120/11/3
f 129/7/3 120/7/3 119/7/3
f 129/11/3 122/11/3 121/11/3
f 130/11/3 122/11/3 129/11/3
f 132/8/3 111/8/3 110/8/3
f 133/7/3 125/7/3 111/7/3
f 133/8/3 111/8/3 132/8/3
f 134/6/3 126/6/3 125/6/3
f 134/7/3 125/7/3 133/7/3
f 135/8/3 127/8/3 126/8/3
f 135/6/3 126/6/3 134/6/3
f 136/8/3 117/8/3 128/8/3
f 136/6/3 118/6/3 117/6/3
f 137/6/3 105/6/3 118/6/3
f 137/6/3 118/6/3 136/6/3
f 137/7/3 119/7/3 105/7/3
f 137/7/3 129/7/3 119/7/3
f 137/7/3 130/7/3 129/7/3
f 138/11/3 122/11/3 130/11/3
f 138/7/3 130/7/3 137/7/3
f 139/2/3 123/2/3 122/2/3
f 139/11/3 122/11/3 138/11/3
f 140/8/3 124/8/3 123/8/3
f 140/2/3 123/2/3 139/2/3
f 142/8/3 132/8/3 131/8/3
f 142/8/3 133/8/3 132/8/3
f 143/8/3 133/8/3 142/8/3
f 144/6/3 134/6/3 133/6/3
f 145/5/3 135/5/3 134/5/3
f 145/6/3 134/6/3 144/6/3
f 146/5/3 137/5/3 136/5/3
f 146/6/3 138/6/3 137/6/3
f 147/6/3 138/6/3 146/6/3
f 151/8/3 149/8/3 148/8/3
f 152/8/3 149/8/3 151/8/3
f 153/8/3 124/8/3 140/8/3
f 154/8/3 151/8/3 150/8/3
f 155/9/3 152/9/3 151/9/3
f 156/8/3 149/8/3 152/8/3
f 156/9/3 152/9/3 155/9/3
f 157/8/3 149/8/3 156/8/3
f 159/8/3 153/8/3 140/8/3
f 159/8/3 154/8/3 153/8/3
f 160/8/3 151/8/3 154/8/3
f 160/8/3 154/8/3 159/8/3
f 161/9/3 155/9/3 151/9/3
f 162/8/3 158/8/3 157/8/3
f 162/9/3 155/9/3 161/9/3
f 162/8/3 157/8/3 156/8/3
f 162/8/3 156/8/3 155/8/3
f 163/8/3 158/8/3 162/8/3
f 164/8/3 158/8/3 163/8/3
f 165/8/3 158/8/3 164/8/3
f 167/8/3 162/8/3 161/8/3
f 167/8/3 163/8/3 162/8/3
f 168/4/3 164/4/3 163/4/3
f 168/8/3 163/8/3 167/8/3
f 169/4/3 164/4/3 168/4/3
f 170/3/3 165/3/3 164/3/3
f 170/4/3 164/4/3 169/4/3
f 171/9/3 160/9/3 159/9/3
f 171/8/3 159/8/3 140/8/3
f 172/8/3 151/8/3 160/8/3
f 172/9/3 160/9/3 171/9/3
f 173/9/3 161/9/3 151/9/3
f 173/8/3 151/8/3 172/8/3
f 174/8/3 167/8/3 161/8/3
f 174/9/3 161/9/3 173/9/3
f 175/8/3 133/8/3 143/8/3
f 175/6/3 144/6/3 133/6/3
f 176/5/3 145/5/3 144/5/3
f 176/6/3 144/6/3 175/6/3
f 177/8/3 127/8/3 135/8/3
f 177/5/3 145/5/3 176/5/3
f 177/5/3 135/5/3 145/5/3
f 178/8/3 136/8/3 128/8/3
f 178/5/3 146/5/3 136/5/3
f 178/5/3 147/5/3 146/5/3
f 179/6/3 138/6/3 147/6/3
f 179/5/3 147/5/3 178/5/3
f 180/10/3 139/10/3 138/10/3
f 180/6/3 138/6/3 179/6/3
f 181/9/3 140/9/3 139/9/3
f 181/10/3 139/10/3 180/10/3
f 182/8/3 171/8/3 140/8/3
f 182/9/3 140/9/3 181/9/3
f 183/4/3 168/4/3 167/4/3
f 183/8/3 167/8/3 174/8/3
f 183/4/3 169/4/3 168/4/3
f 184/4/3 169/4/3 183/4/3
f 185/3/3 170/3/3 169/3/3
f 185/4/3 169/4/3 184/4/3
f 186/3/3 165/3/3 170/3/3
f 186/3/3 170/3/3 185/3/3
f 187/8/3 171/8/3 182/8/3
f 187/2/3 172/2/3 171/2/3
f 188/8/3 173/8/3 172/8/3
f 188/2/3 172/2/3 187/2/3
f 189/2/3 174/2/3 173/2/3
f 189/8/3 184/8/3 183/8/3
f 189/8/3 183/8/3 174/8/3
f 190/8/3 184/8/3 189/8/3
f 191/4/3 186/4/3 185/4/3
f 191/8/3 184/8/3 190/8/3
f 191/4/3 185/4/3 184/4/3
f 192/3/3 165/3/3 186/3/3
f 192/4/3 186/4/3 191/4/3
f 193/8/3 166/8/3 165/8/3
f 193/3/3 165/3/3 192/3/3
f 194/8/3 166/8/3 193/8/3
f 195/8/3 187/8/3 182/8/3
f 195/8/3 188/8/3 187/8/3
f 196/8/3 173/8/3 188/8/3
f 196/8/3 188/8/3 195/8/3
f 197/8/3 191/8/3 190/8/3
f 197/2/3 190/2/3 189/2/3
f 197/8/3 193/8/3 192/8/3
f 197/8/3 192/8/3 191/8/3
f 198/8/3 193/8/3 197/8/3
f 199/8/3 193/8/3 198/8/3
f 200/8/3 193/8/3 199/8/3
f 201/8/3 173/8/3 196/8/3
f 202/2/3 189/2/3 173/2/3
f 202/8/3 173/8/3 201/8/3
f 202/2/3 197/2/3 189/2/3
f 202/2/3 198/2/3 197/2/3
f 203/8/3 199/8/3 198/8/3
f 203/2/3 198/2/3 202/2/3
f 204/8/3 203/8/3 202/8/3
f 205/8/3 199/8/3 203/8/3
f 205/8/3 203/8/3 204/8/3
f 206/8/3 142/8/3 141/8/3
f 207/7/3 143/7/3 142/7/3
f 207/8/3 142/8/3 206/8/3
f 208/8/3 175/8/3 143/8/3
f 208/7/3 143/7/3 207/7/3
f 209/7/3 176/7/3 175/7/3
f 209/6/3 177/6/3 176/6/3
f 210/6/3 177/6/3 209/6/3
f 211/6/3 179/6/3 178/6/3
f 212/7/3 180/7/3 179/7/3
f 212/6/3 179/6/3 211/6/3
f 213/8/3 208/8/3 207/8/3
f 214/8/3 175/8/3 208/8/3
f 214/8/3 208/8/3 213/8/3
f 215/6/3 177/6/3 210/6/3
f 215/7/3 210/7/3 209/7/3
f 216/8/3 127/8/3 177/8/3
f 216/6/3 177/6/3 215/6/3
f 217/1/3 128/1/3 127/1/3
f 217/8/3 127/8/3 216/8/3
f 218/8/3 178/8/3 128/8/3
f 218/1/3 128/1/3 217/1/3
f 219/7/3 180/7/3 212/7/3
f 219/7/3 212/7/3 211/7/3
f 220/11/3 181/11/3 180/11/3
f 220/7/3 180/7/3 219/7/3
f 221/8/3 175/8/3 214/8/3
f 222/7/3 215/7/3 209/7/3
f 222/8/3 175/8/3 221/8/3
f 222/7/3 216/7/3 215/7/3
f 222/7/3 209/7/3 175/7/3
f 223/7/3 216/7/3 222/7/3
f 224/8/3 217/8/3 216/8/3
f 224/7/3 216/7/3 223/7/3
f 225/2/3 218/2/3 217/2/3
f 225/8/3 217/8/3 224/8/3
f 226/2/3 218/2/3 225/2/3
f 227/8/3 178/8/3 218/8/3
f 227/2/3 218/2/3 226/2/3
f 228/6/3 211/6/3 178/6/3
f 228/8/3 178/8/3 227/8/3
f 229/6/3 211/6/3 228/6/3
f 230/7/3 219/7/3 211/7/3
f 231/11/3 220/11/3 219/11/3
f 231/7/3 219/7/3 230/7/3
f 232/11/3 181/11/3 220/11/3
f 232/11/3 220/11/3 231/11/3
f 233/2/3 182/2/3 181/2/3
f 233/11/3 181/11/3 232/11/3
f 234/8/3 195/8/3 182/8/3
f 234/2/3 182/2/3 233/2/3
f 235/8/3 195/8/3 234/8/3
f 236/8/3 223/8/3 222/8/3
f 237/7/3 224/7/3 223/7/3
f 237/8/3 223/8/3 236/8/3
f 237/7/3 225/7/3 224/7/3
f 238/8/3 226/8/3 225/8/3
f 238/7/3 225/7/3 237/7/3
f 239/2/3 227/2/3 226/2/3
f 239/8/3 226/8/3 238/8/3
f 239/2/3 228/2/3 227/2/3
f 240/8/3 229/8/3 228/8/3
f 240/2/3 228/2/3 239/2/3
f 241/6/3 211/6/3 229/6/3
f 241/8/3 229/8/3 240/8/3
f 242/7/3 230/7/3 211/7/3
f 242/6/3 211/6/3 241/6/3
f 243/11/3 231/11/3 230/11/3
f 243/7/3 230/7/3 242/7/3
f 243/11/3 232/11/3 231/11/3
f 244/2/3 233/2/3 232/2/3
f 244/11/3 232/11/3 243/11/3
f 245/8/3 234/8/3 233/8/3
f 245/2/3 233/2/3 244/2/3
f 246/8/3 234/8/3 245/8/3
f 247/8/3 242/8/3 241/8/3
f 247/8/3 240/8/3 239/8/3
f 247/8/3 245/8/3 244/8/3
f 247/8/3 244/8/3 243/8/3
f 247/8/3 238/8/3 237/8/3
f 247/8/3 239/8/3 238/8/3
f 247/8/3 243/8/3 242/8/3
f 247/8/3 241/8/3 240/8/3
f 248/8/3 245/8/3 247/8/3
f 249/8/4 250/8/4 252/8/4
f 252/8/4 250/8/4 253/8/4
f 253/8/4 250/8/4 254/8/4
f 254/8/4 250/8/4 255/8/4
f 255/8/4 250/8/4 256/8/4
f 256/8/4 250/8/4 257/8/4
f 257/8/4 250/8/4 258/8/4
f 258/8/4 250/8/4 259/8/4
f 259/8/4 250/8/4 260/8/4
f 251/8/4 252/8/4 263/8/4
f 252/7/4 253/7/4 264/7/4
f 263/8/4 252/8/4 264/8/4
f 264/7/4 253/7/4 265/7/4
f 253/8/4 254/8/4 266/8/4
f 265/7/4 253/7/4 266/7/4
f 254/2/4 255/2/4 267/2/4
f 266/8/4 254/8/4 267/8/4
f 267/2/4 255/2/4 268/2/4
f 255/8/4 256/8/4 269/8/4
f 268/2/4 255/2/4 269/2/4
f 256/6/4 257/6/4 270/6/4
f 269/8/4 256/8/4 270/8/4
f 257/7/4 258/7/4 271/7/4
f 258/11/4 259/11/4 271/11/4
f 271/11/4 259/11/4 272/11/4
f 259/2/4 260/2/4 273/2/4
f 272/11/4 259/11/4 273/11/4
f 260/8/4 261/8/4 274/8/4
f 273/2/4 260/2/4 274/2/4
f 274/8/4 261/8/4 275/8/4
f 264/7/4 265/7/4 277/7/4
f 263/7/4 264/7/4 277/7/4
f 265/8/4 266/8/4 278/8/4
f 277/7/4 265/7/4 278/7/4
f 267/2/4 268/2/4 279/2/4
f 278/8/4 266/8/4 279/8/4
f 266/2/4 267/2/4 279/2/4
f 268/8/4 269/8/4 280/8/4
f 279/2/4 268/2/4 280/2/4
f 272/11/4 273/11/4 281/11/4
f 271/7/4 272/7/4 281/7/4
f 273/11/4 274/11/4 281/11/4
f 281/11/4 274/11/4 282/11/4
f 262/8/4 263/8/4 284/8/4
f 263/7/4 277/7/4 285/7/4
f 284/8/4 263/8/4 285/8/4
f 277/6/4 278/6/4 286/6/4
f 285/7/4 277/7/4 286/7/4
f 278/8/4 279/8/4 287/8/4
f 286/6/4 278/6/4 287/6/4
f 280/8/4 269/8/4 288/8/4
f 269/6/4 270/6/4 288/6/4
f 270/6/4 257/6/4 289/6/4
f 288/6/4 270/6/4 289/6/4
f 257/7/4 271/7/4 289/7/4
f 271/7/4 281/7/4 289/7/4
f 281/7/4 282/7/4 289/7/4
f 282/11/4 274/11/4 290/11/4
f 289/7/4 282/7/4 290/7/4
f 274/2/4 275/2/4 291/2/4
f 290/11/4 274/11/4 291/11/4
f 275/8/4 276/8/4 292/8/4
f 291/2/4 275/2/4 292/2/4
f 283/8/4 284/8/4 294/8/4
f 284/8/4 285/8/4 294/8/4
f 294/8/4 285/8/4 295/8/4
f 285/6/4 286/6/4 296/6/4
f 286/5/4 287/5/4 297/5/4
f 296/6/4 286/6/4 297/6/4
f 288/5/4 289/5/4 298/5/4
f 289/6/4 290/6/4 298/6/4
f 298/6/4 290/6/4 299/6/4
f 300/8/4 301/8/4 303/8/4
f 303/8/4 301/8/4 304/8/4
f 292/8/4 276/8/4 305/8/4
f 302/8/4 303/8/4 306/8/4
f 303/9/4 304/9/4 307/9/4
f 304/8/4 301/8/4 308/8/4
f 307/9/4 304/9/4 308/9/4
f 308/8/4 301/8/4 309/8/4
f 292/8/4 305/8/4 311/8/4
f 305/8/4 306/8/4 311/8/4
f 306/8/4 303/8/4 312/8/4
f 311/8/4 306/8/4 312/8/4
f 303/9/4 307/9/4 313/9/4
f 309/8/4 310/8/4 314/8/4
f 313/9/4 307/9/4 314/9/4
f 308/8/4 309/8/4 314/8/4
f 307/8/4 308/8/4 314/8/4
f 314/8/4 310/8/4 315/8/4
f 315/8/4 310/8/4 316/8/4
f 316/8/4 310/8/4 317/8/4
f 313/8/4 314/8/4 319/8/4
f 314/8/4 315/8/4 319/8/4
f 315/4/4 316/4/4 320/4/4
f 319/8/4 315/8/4 320/8/4
f 320/4/4 316/4/4 321/4/4
f 316/3/4 317/3/4 322/3/4
f 321/4/4 316/4/4 322/4/4
f 311/9/4 312/9/4 323/9/4
f 292/8/4 311/8/4 323/8/4
f 312/8/4 303/8/4 324/8/4
f 323/9/4 312/9/4 324/9/4
f 303/9/4 313/9/4 325/9/4
f 324/8/4 303/8/4 325/8/4
f 313/8/4 319/8/4 326/8/4
f 325/9/4 313/9/4 326/9/4
f 295/8/4 285/8/4 327/8/4
f 285/6/4 296/6/4 327/6/4
f 296/5/4 297/5/4 328/5/4
f 327/6/4 296/6/4 328/6/4
f 287/8/4 279/8/4 329/8/4
f 328/5/4 297/5/4 329/5/4
f 297/5/4 287/5/4 329/5/4
f 280/8/4 288/8/4 330/8/4
f 288/5/4 298/5/4 330/5/4
f 298/5/4 299/5/4 330/5/4
f 299/6/4 290/6/4 331/6/4
f 330/5/4 299/5/4 331/5/4
f 290/10/4 291/10/4 332/10/4
f 331/6/4 290/6/4 332/6/4
f 291/9/4 292/9/4 333/9/4
f 332/10/4 291/10/4 333/10/4
f 292/8/4 323/8/4 334/8/4
f 333/9/4 292/9/4 334/9/4
f 319/4/4 320/4/4 335/4/4
f 326/8/4 319/8/4 335/8/4
f 320/4/4 321/4/4 335/4/4
f 335/4/4 321/4/4 336/4/4
f 321/3/4 322/3/4 337/3/4
f 336/4/4 321/4/4 337/4/4
f 322/3/4 317/3/4 338/3/4
f 337/3/4 322/3/4 338/3/4
f 334/8/4 323/8/4 339/8/4
f 323/2/4 324/2/4 339/2/4
f 324/8/4 325/8/4 340/8/4
f 339/2/4 324/2/4 340/2/4
f 325/2/4 326/2/4 341/2/4
f 335/8/4 336/8/4 341/8/4
f 326/8/4 335/8/4 341/8/4
f 341/8/4 336/8/4 342/8/4
f 337/4/4 338/4/4 343/4/4
f 342/8/4 336/8/4 343/8/4
f 336/4/4 337/4/4 343/4/4
f 338/3/4 317/3/4 344/3/4
f 343/4/4 338/4/4 344/4/4
f 317/8/4 318/8/4 345/8/4
f 344/3/4 317/3/4 345/3/4
f 345/8/4 318/8/4 346/8/4
f 334/8/4 339/8/4 347/8/4
f 339/8/4 340/8/4 347/8/4
f 340/8/4 325/8/4 348/8/4
f 347/8/4 340/8/4 348/8/4
f 342/8/4 343/8/4 349/8/4
f 341/2/4 342/2/4 349/2/4
f 344/8/4 345/8/4 349/8/4
f 343/8/4 344/8/4 349/8/4
f 349/8/4 345/8/4 350/8/4
f 350/8/4 345/8/4 351/8/4
f 351/8/4 345/8/4 352/8/4
f 348/8/4 325/8/4 353/8/4
f 325/2/4 341/2/4 354/2/4
f 353/8/4 325/8/4 354/8/4
f 341/2/4 349/2/4 354/2/4
f 349/2/4 350/2/4 354/2/4
f 350/8/4 351/8/4 355/8/4
f 354/2/4 350/2/4 355/2/4
f 354/8/4 355/8/4 356/8/4
f 355/8/4 351/8/4 357/8/4
f 356/8/4 355/8/4 357/8/4
f 293/8/4 294/8/4 358/8/4
f 294/7/4 295/7/4 359/7/4
f 358/8/4 294/8/4 359/8/4
f 295/8/4 327/8/4 360/8/4
f 359/7/4 295/7/4 360/7/4
f 327/7/4 328/7/4 361/7/4
f 328/6/4 329/6/4 361/6/4
f 361/6/4 329/6/4 362/6/4
f 330/6/4 331/6/4 363/6/4
f 331/7/4 332/7/4 364/7/4
f 363/6/4 331/6/4 364/6/4
f 359/8/4 360/8/4 365/8/4
f 360/8/4 327/8/4 366/8/4
f 365/8/4 360/8/4 366/8/4
f 362/6/4 329/6/4 367/6/4
f 361/7/4 362/7/4 367/7/4
f 329/8/4 279/8/4 368/8/4
f 367/6/4 329/6/4 368/6/4
f 279/1/4 280/1/4 369/1/4
f 368/8/4 279/8/4 369/8/4
f 280/8/4 330/8/4 370/8/4
f 369/1/4 280/1/4 370/1/4
f 364/7/4 332/7/4 371/7/4
f 363/7/4 364/7/4 371/7/4
f 332/11/4 333/11/4 372/11/4
f 371/7/4 332/7/4 372/7/4
f 366/8/4 327/8/4 373/8/4
f 361/7/4 367/7/4 374/7/4
f 373/8/4 327/8/4 374/8/4
f 367/7/4 368/7/4 374/7/4
f 327/7/4 361/7/4 374/7/4
f 374/7/4 368/7/4 375/7/4
f 368/8/4 369/8/4 376/8/4
f 375/7/4 368/7/4 376/7/4
f 369/2/4 370/2/4 377/2/4
f 376/8/4 369/8/4 377/8/4
f 377/2/4 370/2/4 378/2/4
f 370/8/4 330/8/4 379/8/4
f 378/2/4 370/2/4 379/2/4
f 330/6/4 363/6/4 380/6/4
f 379/8/4 330/8/4 380/8/4
f 380/6/4 363/6/4 381/6/4
f 363/7/4 371/7/4 382/7/4
f 371/11/4 372/11/4 383/11/4
f 382/7/4 371/7/4 383/7/4
f 372/11/4 333/11/4 384/11/4
f 383/11/4 372/11/4 384/11/4
f 333/2/4 334/2/4 385/2/4
f 384/11/4 333/11/4 385/11/4
f 334/8/4 347/8/4 386/8/4
f 385/2/4 334/2/4 386/2/4
f 386/8/4 347/8/4 387/8/4
f 374/8/4 375/8/4 388/8/4
f 375/7/4 376/7/4 389/7/4
f 388/8/4 375/8/4 389/8/4
f 376/7/4 377/7/4 389/7/4
f 377/8/4 378/8/4 390/8/4
f 389/7/4 377/7/4 390/7/4
f 378/2/4 379/2/4 391/2/4
f 390/8/4 378/8/4 391/8/4
f 379/2/4 380/2/4 391/2/4
f 380/8/4 381/8/4 392/8/4
f 391/2/4 380/2/4 392/2/4
f 381/6/4 363/6/4 393/6/4
f 392/8/4 381/8/4 393/8/4
f 363/7/4 382/7/4 394/7/4
f 393/6/4 363/6/4 394/6/4
f 382/11/4 383/11/4 395/11/4
f 394/7/4 382/7/4 395/7/4
f 383/11/4 384/11/4 395/11/4
f 384/2/4 385/2/4 396/2/4
f 395/11/4 384/11/4 396/11/4
f 385/8/4 386/8/4 397/8/4
f 396/2/4 385/2/4 397/2/4
f 397/8/4 386/8/4 398/8/4
f 393/8/4 394/8/4 399/8/4
f 391/8/4 392/8/4 399/8/4
f 396/8/4 397/8/4 399/8/4
f 395/8/4 396/8/4 399/8/4
f 389/8/4 390/8/4 399/8/4
f 390/8/4 391/8/4 399/8/4
f 394/8/4 395/8/4 399/8/4
f 392/8/4 393/8/4 399/8/4
f 399/8/4 397/8/4 400/8/4
f 403/8/5 402/8/5 401/8/5
f 404/8/5 402/8/5 403/8/5
f 409/8/5 406/8/5 405/8/5
f 410/8/5 406/8/5 409/8/5
f 411/8/5 408/8/5 407/8/5
f 412/8/5 408/8/5 411/8/5
f 417/8/5 414/8/5 413/8/5
f 418/8/5 414/8/5 417/8/5
f 419/8/5 416/8/5 415/8/5
f 420/8/5 416/8/5 419/8/5
f 425/8/5 422/8/5 421/8/5
f 426/8/5 422/8/5 425/8/5
f 427/8/5 424/8/5 423/8/5
f 428/8/5 424/8/5 427/8/5
f 433/8/5 430/8/5 429/8/5
f 434/8/5 430/8/5 433/8/5
f 435/8/5 432/8/5 431/8/5
f 436/8/5 432/8/5 435/8/5
f 441/8/5 438/8/5 437/8/5
f 442/8/5 438/8/5 441/8/5
f 443/8/5 440/8/5 439/8/5
f 444/8/5 440/8/5 443/8/5
f 449/8/5 446/8/5 445/8/5
f 450/8/5 446/8/5 449/8/5
f 451/8/5 448/8/5 447/8/5
f 452/8/5 448/8/5 451/8/5
f 453/8/6 454/8/6 457/8/6
f 457/8/6 454/8/6 458/8/6
f 455/8/6 456/8/6 459/8/6
f 459/8/6 456/8/6 460/8/6
f 461/8/6 462/8/6 465/8/6
f 465/8/6 462/8/6 466/8/6
f 463/8/6 464/8/6 467/8/6
f 467/8/6 464/8/6 468/8/6
f 469/8/6 470/8/6 473/8/6
f 473/8/6 470/8/6 474/8/6
f 471/8/6 472/8/6 475/8/6
f 475/8/6 472/8/6 476/8/6
f 477/8/6 478/8/6 481/8/6
f 481/8/6 478/8/6 482/8/6
f 479/8/6 480/8/6 483/8/6
f 483/8/6 480/8/6 484/8/6
f 485/8/6 486/8/6 489/8/6
f 489/8/6 486/8/6 490/8/6
f 487/8/6 488/8/6 491/8/6
f 491/8/6 488/8/6 492/8/6
f 493/8/6 494/8/6 495/8/6
f 495/8/6 494/8/6 496/8/6
