# MagicaVoxel @ Ephtracy

# group
o 

# material
mtllib redPotion.vox.mtl
usemtl palette

# normals
vn -1 0 0
vn 1 0 0
vn 0 0 1
vn 0 0 -1
vn 0 -1 0
vn 0 1 0

# texcoords
vt 0.00195312 0.5
vt 0.0839844 0.5
vt 0.169922 0.5
vt 0.251953 0.5
vt 0.365234 0.5
vt 0.392578 0.5
vt 0.533203 0.5
vt 0.876953 0.5
vt 0.958984 0.5
vt 0.966797 0.5
vt 0.970703 0.5

# verts
v -1.1 0.6 0.6
v -1.1 0.6 0.1
v -1.1 1.9 0.6
v -1.1 1.9 0.1
v -1 0.4 0.6
v -1 0.4 0.1
v -1 0.6 0.6
v -1 0.6 0.1
v -1 1.9 0.6
v -1 1.9 0.1
v -1 2 0.6
v -1 2 0.1
v -0.9 0.3 0.6
v -0.9 0.3 0.1
v -0.9 0.4 0.6
v -0.9 0.4 0.1
v -0.9 2 0.6
v -0.9 2 0.1
v -0.9 2.1 0.6
v -0.9 2.1 0.1
v -0.7 0.1 0.6
v -0.7 0.1 0.1
v -0.7 0.3 0.6
v -0.7 0.3 0.1
v -0.6 0 0.6
v -0.6 0 0.1
v -0.6 0.1 0.6
v -0.6 0.1 0.1
v -0.5 2.4 0.6
v -0.5 2.4 0.1
v -0.5 2.8 0.6
v -0.5 2.8 0.1
v -0.4 2.3 0.6
v -0.4 2.3 0.1
v -0.4 2.4 0.6
v -0.4 2.4 0.1
v -0.3 2.1 0.6
v -0.3 2.1 0.1
v -0.3 2.3 0.6
v -0.3 2.3 0.1
v -0.3 2.8 0.6
v -0.3 2.8 0.1
v -0.3 3.1 0.6
v -0.3 3.1 0.1
v -0.2 3.1 0.6
v -0.2 3.1 0.1
v -0.2 3.2 0.6
v -0.2 3.2 0.1
v 0.2 3.1 0.6
v 0.2 3.1 0.1
v 0.2 3.2 0.6
v 0.2 3.2 0.1
v 0.3 2.1 0.6
v 0.3 2.1 0.1
v 0.3 2.3 0.6
v 0.3 2.3 0.1
v 0.3 2.8 0.6
v 0.3 2.8 0.1
v 0.3 3.1 0.6
v 0.3 3.1 0.1
v 0.4 2.3 0.6
v 0.4 2.3 0.1
v 0.4 2.4 0.6
v 0.4 2.4 0.1
v 0.5 2.4 0.6
v 0.5 2.4 0.1
v 0.5 2.8 0.6
v 0.5 2.8 0.1
v 0.6 0 0.6
v 0.6 0 0.1
v 0.6 0.1 0.6
v 0.6 0.1 0.1
v 0.7 0.1 0.6
v 0.7 0.1 0.1
v 0.7 0.3 0.6
v 0.7 0.3 0.1
v 0.9 0.3 0.6
v 0.9 0.3 0.1
v 0.9 0.4 0.6
v 0.9 0.4 0.1
v 0.9 2 0.6
v 0.9 2 0.1
v 0.9 2.1 0.6
v 0.9 2.1 0.1
v 1 0.4 0.6
v 1 0.4 0.1
v 1 0.6 0.6
v 1 0.6 0.1
v 1 1.9 0.6
v 1 1.9 0.1
v 1 2 0.6
v 1 2 0.1
v 1.1 0.6 0.6
v 1.1 0.6 0.1
v 1.1 1.9 0.6
v 1.1 1.9 0.1
v -1.1 0.6 0.6
v -1.1 1.9 0.6
v -1 0.4 0.6
v -1 0.6 0.6
v -1 0.8 0.6
v -1 0.9 0.6
v -1 1.3 0.6
v -1 1.4 0.6
v -1 1.6 0.6
v -1 1.8 0.6
v -1 1.9 0.6
v -1 2 0.6
v -0.9 0.3 0.6
v -0.9 0.4 0.6
v -0.9 0.6 0.6
v -0.9 0.7 0.6
v -0.9 0.8 0.6
v -0.9 0.9 0.6
v -0.9 1.2 0.6
v -0.9 1.3 0.6
v -0.9 1.4 0.6
v -0.9 1.6 0.6
v -0.9 1.7 0.6
v -0.9 1.8 0.6
v -0.9 1.9 0.6
v -0.9 2 0.6
v -0.9 2.1 0.6
v -0.8 0.8 0.6
v -0.8 1.2 0.6
v -0.8 1.7 0.6
v -0.8 1.8 0.6
v -0.7 0.1 0.6
v -0.7 0.3 0.6
v -0.6 0 0.6
v -0.6 0.1 0.6
v -0.6 0.3 0.6
v -0.5 2.4 0.6
v -0.5 2.8 0.6
v -0.4 2.3 0.6
v -0.4 2.4 0.6
v -0.4 2.7 0.6
v -0.3 2.1 0.6
v -0.3 2.3 0.6
v -0.3 2.6 0.6
v -0.3 2.7 0.6
v -0.3 2.8 0.6
v -0.3 3.1 0.6
v -0.2 2.1 0.6
v -0.2 2.3 0.6
v -0.2 2.5 0.6
v -0.2 2.6 0.6
v -0.2 2.7 0.6
v -0.2 2.9 0.6
v -0.2 3.1 0.6
v -0.2 3.2 0.6
v -0.1 0.5 0.6
v -0.1 0.7 0.6
v -0.1 1.3 0.6
v -0.1 1.6 0.6
v -0.1 1.8 0.6
v -0.1 1.9 0.6
v -0.1 2 0.6
v -0.1 2.6 0.6
v -0.1 2.7 0.6
v -0.1 2.8 0.6
v -0.1 2.9 0.6
v 0 2.1 0.6
v 0 2.3 0.6
v 0 2.4 0.6
v 0 2.5 0.6
v 0.1 2.6 0.6
v 0.1 2.7 0.6
v 0.1 2.8 0.6
v 0.1 2.9 0.6
v 0.2 2.1 0.6
v 0.2 2.3 0.6
v 0.2 2.5 0.6
v 0.2 2.6 0.6
v 0.2 2.7 0.6
v 0.2 2.9 0.6
v 0.2 3.1 0.6
v 0.2 3.2 0.6
v 0.3 2.1 0.6
v 0.3 2.3 0.6
v 0.3 2.6 0.6
v 0.3 2.7 0.6
v 0.3 2.8 0.6
v 0.3 3.1 0.6
v 0.4 2.3 0.6
v 0.4 2.4 0.6
v 0.4 2.7 0.6
v 0.5 2.4 0.6
v 0.5 2.8 0.6
v 0.6 0 0.6
v 0.6 0.1 0.6
v 0.6 0.3 0.6
v 0.6 0.5 0.6
v 0.6 0.6 0.6
v 0.6 1.5 0.6
v 0.6 1.6 0.6
v 0.7 0.1 0.6
v 0.7 0.3 0.6
v 0.7 0.6 0.6
v 0.7 0.7 0.6
v 0.7 1.3 0.6
v 0.7 1.5 0.6
v 0.7 1.8 0.6
v 0.7 1.9 0.6
v 0.7 2 0.6
v 0.8 0.8 0.6
v 0.8 1.2 0.6
v 0.8 1.7 0.6
v 0.8 1.8 0.6
v 0.9 0.3 0.6
v 0.9 0.4 0.6
v 0.9 0.6 0.6
v 0.9 0.7 0.6
v 0.9 0.8 0.6
v 0.9 0.9 0.6
v 0.9 1.2 0.6
v 0.9 1.3 0.6
v 0.9 1.4 0.6
v 0.9 1.6 0.6
v 0.9 1.7 0.6
v 0.9 1.8 0.6
v 0.9 1.9 0.6
v 0.9 2 0.6
v 0.9 2.1 0.6
v 1 0.4 0.6
v 1 0.6 0.6
v 1 0.8 0.6
v 1 0.9 0.6
v 1 1.3 0.6
v 1 1.4 0.6
v 1 1.6 0.6
v 1 1.8 0.6
v 1 1.9 0.6
v 1 2 0.6
v 1.1 0.6 0.6
v 1.1 1.9 0.6
v -1.1 0.6 0.1
v -1.1 1.9 0.1
v -1 0.4 0.1
v -1 0.6 0.1
v -1 0.8 0.1
v -1 0.9 0.1
v -1 1.3 0.1
v -1 1.4 0.1
v -1 1.6 0.1
v -1 1.8 0.1
v -1 1.9 0.1
v -1 2 0.1
v -0.9 0.3 0.1
v -0.9 0.4 0.1
v -0.9 0.6 0.1
v -0.9 0.7 0.1
v -0.9 0.8 0.1
v -0.9 0.9 0.1
v -0.9 1.2 0.1
v -0.9 1.3 0.1
v -0.9 1.4 0.1
v -0.9 1.6 0.1
v -0.9 1.7 0.1
v -0.9 1.8 0.1
v -0.9 1.9 0.1
v -0.9 2 0.1
v -0.9 2.1 0.1
v -0.8 0.8 0.1
v -0.8 1.2 0.1
v -0.8 1.7 0.1
v -0.8 1.8 0.1
v -0.7 0.1 0.1
v -0.7 0.3 0.1
v -0.6 0 0.1
v -0.6 0.1 0.1
v -0.6 0.3 0.1
v -0.5 2.4 0.1
v -0.5 2.8 0.1
v -0.4 2.3 0.1
v -0.4 2.4 0.1
v -0.4 2.7 0.1
v -0.3 2.1 0.1
v -0.3 2.3 0.1
v -0.3 2.6 0.1
v -0.3 2.7 0.1
v -0.3 2.8 0.1
v -0.3 3.1 0.1
v -0.2 2.1 0.1
v -0.2 2.3 0.1
v -0.2 2.5 0.1
v -0.2 2.6 0.1
v -0.2 2.7 0.1
v -0.2 2.9 0.1
v -0.2 3.1 0.1
v -0.2 3.2 0.1
v -0.1 0.5 0.1
v -0.1 0.7 0.1
v -0.1 1.3 0.1
v -0.1 1.6 0.1
v -0.1 1.8 0.1
v -0.1 1.9 0.1
v -0.1 2 0.1
v -0.1 2.6 0.1
v -0.1 2.7 0.1
v -0.1 2.8 0.1
v -0.1 2.9 0.1
v 0 2.1 0.1
v 0 2.3 0.1
v 0 2.4 0.1
v 0 2.5 0.1
v 0.1 2.6 0.1
v 0.1 2.7 0.1
v 0.1 2.8 0.1
v 0.1 2.9 0.1
v 0.2 2.1 0.1
v 0.2 2.3 0.1
v 0.2 2.5 0.1
v 0.2 2.6 0.1
v 0.2 2.7 0.1
v 0.2 2.9 0.1
v 0.2 3.1 0.1
v 0.2 3.2 0.1
v 0.3 2.1 0.1
v 0.3 2.3 0.1
v 0.3 2.6 0.1
v 0.3 2.7 0.1
v 0.3 2.8 0.1
v 0.3 3.1 0.1
v 0.4 2.3 0.1
v 0.4 2.4 0.1
v 0.4 2.7 0.1
v 0.5 2.4 0.1
v 0.5 2.8 0.1
v 0.6 0 0.1
v 0.6 0.1 0.1
v 0.6 0.3 0.1
v 0.6 0.5 0.1
v 0.6 0.6 0.1
v 0.6 1.5 0.1
v 0.6 1.6 0.1
v 0.7 0.1 0.1
v 0.7 0.3 0.1
v 0.7 0.6 0.1
v 0.7 0.7 0.1
v 0.7 1.3 0.1
v 0.7 1.5 0.1
v 0.7 1.8 0.1
v 0.7 1.9 0.1
v 0.7 2 0.1
v 0.8 0.8 0.1
v 0.8 1.2 0.1
v 0.8 1.7 0.1
v 0.8 1.8 0.1
v 0.9 0.3 0.1
v 0.9 0.4 0.1
v 0.9 0.6 0.1
v 0.9 0.7 0.1
v 0.9 0.8 0.1
v 0.9 0.9 0.1
v 0.9 1.2 0.1
v 0.9 1.3 0.1
v 0.9 1.4 0.1
v 0.9 1.6 0.1
v 0.9 1.7 0.1
v 0.9 1.8 0.1
v 0.9 1.9 0.1
v 0.9 2 0.1
v 0.9 2.1 0.1
v 1 0.4 0.1
v 1 0.6 0.1
v 1 0.8 0.1
v 1 0.9 0.1
v 1 1.3 0.1
v 1 1.4 0.1
v 1 1.6 0.1
v 1 1.8 0.1
v 1 1.9 0.1
v 1 2 0.1
v 1.1 0.6 0.1
v 1.1 1.9 0.1
v -0.6 0 0.6
v 0.6 0 0.6
v -0.6 0 0.1
v 0.6 0 0.1
v -0.7 0.1 0.6
v -0.6 0.1 0.6
v 0.6 0.1 0.6
v 0.7 0.1 0.6
v -0.7 0.1 0.1
v -0.6 0.1 0.1
v 0.6 0.1 0.1
v 0.7 0.1 0.1
v -0.9 0.3 0.6
v -0.7 0.3 0.6
v 0.7 0.3 0.6
v 0.9 0.3 0.6
v -0.9 0.3 0.1
v -0.7 0.3 0.1
v 0.7 0.3 0.1
v 0.9 0.3 0.1
v -1 0.4 0.6
v -0.9 0.4 0.6
v 0.9 0.4 0.6
v 1 0.4 0.6
v -1 0.4 0.1
v -0.9 0.4 0.1
v 0.9 0.4 0.1
v 1 0.4 0.1
v -1.1 0.6 0.6
v -1 0.6 0.6
v 1 0.6 0.6
v 1.1 0.6 0.6
v -1.1 0.6 0.1
v -1 0.6 0.1
v 1 0.6 0.1
v 1.1 0.6 0.1
v -0.4 2.3 0.6
v -0.3 2.3 0.6
v 0.3 2.3 0.6
v 0.4 2.3 0.6
v -0.4 2.3 0.1
v -0.3 2.3 0.1
v 0.3 2.3 0.1
v 0.4 2.3 0.1
v -0.5 2.4 0.6
v -0.4 2.4 0.6
v 0.4 2.4 0.6
v 0.5 2.4 0.6
v -0.5 2.4 0.1
v -0.4 2.4 0.1
v 0.4 2.4 0.1
v 0.5 2.4 0.1
v -1.1 1.9 0.6
v -1 1.9 0.6
v 1 1.9 0.6
v 1.1 1.9 0.6
v -1.1 1.9 0.1
v -1 1.9 0.1
v 1 1.9 0.1
v 1.1 1.9 0.1
v -1 2 0.6
v -0.9 2 0.6
v 0.9 2 0.6
v 1 2 0.6
v -1 2 0.1
v -0.9 2 0.1
v 0.9 2 0.1
v 1 2 0.1
v -0.9 2.1 0.6
v -0.3 2.1 0.6
v 0.3 2.1 0.6
v 0.9 2.1 0.6
v -0.9 2.1 0.1
v -0.3 2.1 0.1
v 0.3 2.1 0.1
v 0.9 2.1 0.1
v -0.5 2.8 0.6
v -0.3 2.8 0.6
v 0.3 2.8 0.6
v 0.5 2.8 0.6
v -0.5 2.8 0.1
v -0.3 2.8 0.1
v 0.3 2.8 0.1
v 0.5 2.8 0.1
v -0.3 3.1 0.6
v -0.2 3.1 0.6
v 0.2 3.1 0.6
v 0.3 3.1 0.6
v -0.3 3.1 0.1
v -0.2 3.1 0.1
v 0.2 3.1 0.1
v 0.3 3.1 0.1
v -0.2 3.2 0.6
v 0.2 3.2 0.6
v -0.2 3.2 0.1
v 0.2 3.2 0.1

# faces
f 3/8/1 2/8/1 1/8/1
f 4/8/1 2/8/1 3/8/1
f 7/8/1 6/8/1 5/8/1
f 8/8/1 6/8/1 7/8/1
f 11/8/1 10/8/1 9/8/1
f 12/8/1 10/8/1 11/8/1
f 15/8/1 14/8/1 13/8/1
f 16/8/1 14/8/1 15/8/1
f 19/8/1 18/8/1 17/8/1
f 20/8/1 18/8/1 19/8/1
f 23/8/1 22/8/1 21/8/1
f 24/8/1 22/8/1 23/8/1
f 27/8/1 26/8/1 25/8/1
f 28/8/1 26/8/1 27/8/1
f 31/8/1 30/8/1 29/8/1
f 32/8/1 30/8/1 31/8/1
f 35/8/1 34/8/1 33/8/1
f 36/8/1 34/8/1 35/8/1
f 39/8/1 38/8/1 37/8/1
f 40/8/1 38/8/1 39/8/1
f 43/8/1 42/8/1 41/8/1
f 44/8/1 42/8/1 43/8/1
f 47/8/1 46/8/1 45/8/1
f 48/8/1 46/8/1 47/8/1
f 49/8/2 50/8/2 51/8/2
f 51/8/2 50/8/2 52/8/2
f 53/8/2 54/8/2 55/8/2
f 55/8/2 54/8/2 56/8/2
f 57/8/2 58/8/2 59/8/2
f 59/8/2 58/8/2 60/8/2
f 61/8/2 62/8/2 63/8/2
f 63/8/2 62/8/2 64/8/2
f 65/8/2 66/8/2 67/8/2
f 67/8/2 66/8/2 68/8/2
f 69/8/2 70/8/2 71/8/2
f 71/8/2 70/8/2 72/8/2
f 73/8/2 74/8/2 75/8/2
f 75/8/2 74/8/2 76/8/2
f 77/8/2 78/8/2 79/8/2
f 79/8/2 78/8/2 80/8/2
f 81/8/2 82/8/2 83/8/2
f 83/8/2 82/8/2 84/8/2
f 85/8/2 86/8/2 87/8/2
f 87/8/2 86/8/2 88/8/2
f 89/8/2 90/8/2 91/8/2
f 91/8/2 90/8/2 92/8/2
f 93/8/2 94/8/2 95/8/2
f 95/8/2 94/8/2 96/8/2
f 100/8/3 98/8/3 97/8/3
f 101/8/3 98/8/3 100/8/3
f 102/8/3 98/8/3 101/8/3
f 103/8/3 98/8/3 102/8/3
f 104/8/3 98/8/3 103/8/3
f 105/8/3 98/8/3 104/8/3
f 106/8/3 98/8/3 105/8/3
f 107/8/3 98/8/3 106/8/3
f 110/8/3 100/8/3 99/8/3
f 111/4/3 101/4/3 100/4/3
f 111/8/3 100/8/3 110/8/3
f 112/4/3 101/4/3 111/4/3
f 113/8/3 102/8/3 101/8/3
f 113/4/3 101/4/3 112/4/3
f 114/3/3 103/3/3 102/3/3
f 114/8/3 102/8/3 113/8/3
f 115/3/3 103/3/3 114/3/3
f 116/8/3 104/8/3 103/8/3
f 116/3/3 103/3/3 115/3/3
f 117/4/3 105/4/3 104/4/3
f 117/8/3 104/8/3 116/8/3
f 118/11/3 106/11/3 105/11/3
f 118/4/3 105/4/3 117/4/3
f 119/11/3 106/11/3 118/11/3
f 120/3/3 107/3/3 106/3/3
f 120/11/3 106/11/3 119/11/3
f 121/8/3 108/8/3 107/8/3
f 121/3/3 107/3/3 120/3/3
f 122/8/3 108/8/3 121/8/3
f 124/8/3 113/8/3 112/8/3
f 124/3/3 115/3/3 114/3/3
f 124/3/3 114/3/3 113/3/3
f 125/8/3 116/8/3 115/8/3
f 125/3/3 115/3/3 124/3/3
f 126/11/3 120/11/3 119/11/3
f 126/4/3 117/4/3 116/4/3
f 126/4/3 119/4/3 118/4/3
f 126/4/3 118/4/3 117/4/3
f 126/11/3 121/11/3 120/11/3
f 127/11/3 121/11/3 126/11/3
f 129/8/3 110/8/3 109/8/3
f 131/8/3 129/8/3 128/8/3
f 132/8/3 110/8/3 129/8/3
f 132/8/3 129/8/3 131/8/3
f 136/8/3 134/8/3 133/8/3
f 137/8/3 134/8/3 136/8/3
f 138/8/3 123/8/3 122/8/3
f 139/8/3 136/8/3 135/8/3
f 140/3/3 137/3/3 136/3/3
f 141/8/3 134/8/3 137/8/3
f 141/3/3 137/3/3 140/3/3
f 142/8/3 134/8/3 141/8/3
f 144/8/3 138/8/3 122/8/3
f 144/8/3 139/8/3 138/8/3
f 145/8/3 136/8/3 139/8/3
f 145/8/3 139/8/3 144/8/3
f 146/3/3 140/3/3 136/3/3
f 147/8/3 143/8/3 142/8/3
f 147/3/3 140/3/3 146/3/3
f 147/8/3 142/8/3 141/8/3
f 147/8/3 141/8/3 140/8/3
f 148/8/3 143/8/3 147/8/3
f 149/8/3 143/8/3 148/8/3
f 150/8/3 143/8/3 149/8/3
f 152/4/3 112/4/3 111/4/3
f 152/4/3 111/4/3 110/4/3
f 153/8/3 124/8/3 112/8/3
f 153/4/3 112/4/3 152/4/3
f 154/8/3 116/8/3 125/8/3
f 154/4/3 126/4/3 116/4/3
f 154/4/3 127/4/3 126/4/3
f 155/4/3 127/4/3 154/4/3
f 156/11/3 121/11/3 127/11/3
f 156/4/3 127/4/3 155/4/3
f 157/3/3 122/3/3 121/3/3
f 157/11/3 121/11/3 156/11/3
f 158/8/3 144/8/3 122/8/3
f 158/3/3 122/3/3 157/3/3
f 159/8/3 147/8/3 146/8/3
f 159/8/3 148/8/3 147/8/3
f 160/7/3 149/7/3 148/7/3
f 160/8/3 148/8/3 159/8/3
f 161/7/3 149/7/3 160/7/3
f 162/5/3 150/5/3 149/5/3
f 162/7/3 149/7/3 161/7/3
f 163/3/3 145/3/3 144/3/3
f 163/8/3 144/8/3 158/8/3
f 164/8/3 136/8/3 145/8/3
f 164/3/3 145/3/3 163/3/3
f 165/3/3 146/3/3 136/3/3
f 165/8/3 136/8/3 164/8/3
f 166/8/3 159/8/3 146/8/3
f 166/3/3 146/3/3 165/3/3
f 167/7/3 161/7/3 160/7/3
f 167/8/3 159/8/3 166/8/3
f 167/7/3 160/7/3 159/7/3
f 168/7/3 161/7/3 167/7/3
f 169/5/3 162/5/3 161/5/3
f 169/7/3 161/7/3 168/7/3
f 170/5/3 150/5/3 162/5/3
f 170/5/3 162/5/3 169/5/3
f 171/8/3 163/8/3 158/8/3
f 171/9/3 164/9/3 163/9/3
f 172/8/3 165/8/3 164/8/3
f 172/9/3 164/9/3 171/9/3
f 173/9/3 166/9/3 165/9/3
f 173/8/3 168/8/3 167/8/3
f 173/8/3 167/8/3 166/8/3
f 174/8/3 168/8/3 173/8/3
f 175/7/3 170/7/3 169/7/3
f 175/8/3 168/8/3 174/8/3
f 175/7/3 169/7/3 168/7/3
f 176/5/3 150/5/3 170/5/3
f 176/7/3 170/7/3 175/7/3
f 177/8/3 151/8/3 150/8/3
f 177/5/3 150/5/3 176/5/3
f 178/8/3 151/8/3 177/8/3
f 179/8/3 171/8/3 158/8/3
f 179/8/3 172/8/3 171/8/3
f 180/8/3 165/8/3 172/8/3
f 180/8/3 172/8/3 179/8/3
f 181/8/3 176/8/3 175/8/3
f 181/8/3 175/8/3 174/8/3
f 181/9/3 174/9/3 173/9/3
f 181/8/3 177/8/3 176/8/3
f 182/8/3 177/8/3 181/8/3
f 183/8/3 177/8/3 182/8/3
f 184/8/3 177/8/3 183/8/3
f 185/8/3 165/8/3 180/8/3
f 186/9/3 173/9/3 165/9/3
f 186/8/3 165/8/3 185/8/3
f 186/9/3 181/9/3 173/9/3
f 186/9/3 182/9/3 181/9/3
f 187/8/3 183/8/3 182/8/3
f 187/9/3 182/9/3 186/9/3
f 188/8/3 187/8/3 186/8/3
f 189/8/3 183/8/3 187/8/3
f 189/8/3 187/8/3 188/8/3
f 190/8/3 131/8/3 130/8/3
f 191/6/3 132/6/3 131/6/3
f 191/8/3 131/8/3 190/8/3
f 192/8/3 110/8/3 132/8/3
f 192/6/3 132/6/3 191/6/3
f 193/4/3 152/4/3 110/4/3
f 193/2/3 153/2/3 152/2/3
f 194/2/3 153/2/3 193/2/3
f 195/2/3 155/2/3 154/2/3
f 196/4/3 156/4/3 155/4/3
f 196/2/3 155/2/3 195/2/3
f 197/8/3 192/8/3 191/8/3
f 198/8/3 110/8/3 192/8/3
f 198/8/3 192/8/3 197/8/3
f 199/2/3 153/2/3 194/2/3
f 199/4/3 194/4/3 193/4/3
f 200/8/3 124/8/3 153/8/3
f 200/2/3 153/2/3 199/2/3
f 201/2/3 195/2/3 154/2/3
f 201/8/3 154/8/3 125/8/3
f 202/4/3 196/4/3 195/4/3
f 202/2/3 195/2/3 201/2/3
f 203/4/3 156/4/3 196/4/3
f 203/4/3 196/4/3 202/4/3
f 203/10/3 157/10/3 156/10/3
f 204/9/3 158/9/3 157/9/3
f 204/10/3 157/10/3 203/10/3
f 205/8/3 179/8/3 158/8/3
f 205/9/3 158/9/3 204/9/3
f 206/8/3 124/8/3 200/8/3
f 206/1/3 125/1/3 124/1/3
f 207/8/3 201/8/3 125/8/3
f 207/1/3 125/1/3 206/1/3
f 208/4/3 202/4/3 201/4/3
f 208/4/3 203/4/3 202/4/3
f 209/11/3 204/11/3 203/11/3
f 209/4/3 203/4/3 208/4/3
f 210/8/3 110/8/3 198/8/3
f 211/4/3 199/4/3 193/4/3
f 211/8/3 110/8/3 210/8/3
f 211/4/3 200/4/3 199/4/3
f 211/4/3 193/4/3 110/4/3
f 212/4/3 200/4/3 211/4/3
f 213/8/3 206/8/3 200/8/3
f 213/4/3 200/4/3 212/4/3
f 214/3/3 207/3/3 206/3/3
f 214/8/3 206/8/3 213/8/3
f 215/3/3 207/3/3 214/3/3
f 216/8/3 201/8/3 207/8/3
f 216/3/3 207/3/3 215/3/3
f 217/4/3 208/4/3 201/4/3
f 217/8/3 201/8/3 216/8/3
f 218/4/3 208/4/3 217/4/3
f 219/4/3 208/4/3 218/4/3
f 220/11/3 209/11/3 208/11/3
f 220/4/3 208/4/3 219/4/3
f 221/11/3 204/11/3 209/11/3
f 221/11/3 209/11/3 220/11/3
f 222/3/3 205/3/3 204/3/3
f 222/11/3 204/11/3 221/11/3
f 223/8/3 179/8/3 205/8/3
f 223/3/3 205/3/3 222/3/3
f 224/8/3 179/8/3 223/8/3
f 225/8/3 212/8/3 211/8/3
f 226/4/3 213/4/3 212/4/3
f 226/8/3 212/8/3 225/8/3
f 226/4/3 214/4/3 213/4/3
f 227/8/3 215/8/3 214/8/3
f 227/4/3 214/4/3 226/4/3
f 228/3/3 216/3/3 215/3/3
f 228/8/3 215/8/3 227/8/3
f 228/3/3 217/3/3 216/3/3
f 229/8/3 218/8/3 217/8/3
f 229/3/3 217/3/3 228/3/3
f 230/4/3 219/4/3 218/4/3
f 230/8/3 218/8/3 229/8/3
f 231/11/3 220/11/3 219/11/3
f 231/4/3 219/4/3 230/4/3
f 231/11/3 221/11/3 220/11/3
f 232/3/3 222/3/3 221/3/3
f 232/11/3 221/11/3 231/11/3
f 233/8/3 223/8/3 222/8/3
f 233/3/3 222/3/3 232/3/3
f 234/8/3 223/8/3 233/8/3
f 235/8/3 230/8/3 229/8/3
f 235/8/3 231/8/3 230/8/3
f 235/8/3 233/8/3 232/8/3
f 235/8/3 232/8/3 231/8/3
f 235/8/3 228/8/3 227/8/3
f 235/8/3 227/8/3 226/8/3
f 235/8/3 229/8/3 228/8/3
f 236/8/3 233/8/3 235/8/3
f 237/8/4 238/8/4 240/8/4
f 240/8/4 238/8/4 241/8/4
f 241/8/4 238/8/4 242/8/4
f 242/8/4 238/8/4 243/8/4
f 243/8/4 238/8/4 244/8/4
f 244/8/4 238/8/4 245/8/4
f 245/8/4 238/8/4 246/8/4
f 246/8/4 238/8/4 247/8/4
f 239/8/4 240/8/4 250/8/4
f 240/4/4 241/4/4 251/4/4
f 250/8/4 240/8/4 251/8/4
f 251/4/4 241/4/4 252/4/4
f 241/8/4 242/8/4 253/8/4
f 252/4/4 241/4/4 253/4/4
f 242/3/4 243/3/4 254/3/4
f 253/8/4 242/8/4 254/8/4
f 254/3/4 243/3/4 255/3/4
f 243/8/4 244/8/4 256/8/4
f 255/3/4 243/3/4 256/3/4
f 244/4/4 245/4/4 257/4/4
f 256/8/4 244/8/4 257/8/4
f 245/11/4 246/11/4 258/11/4
f 257/4/4 245/4/4 258/4/4
f 258/11/4 246/11/4 259/11/4
f 246/3/4 247/3/4 260/3/4
f 259/11/4 246/11/4 260/11/4
f 247/8/4 248/8/4 261/8/4
f 260/3/4 247/3/4 261/3/4
f 261/8/4 248/8/4 262/8/4
f 252/8/4 253/8/4 264/8/4
f 254/3/4 255/3/4 264/3/4
f 253/3/4 254/3/4 264/3/4
f 255/8/4 256/8/4 265/8/4
f 264/3/4 255/3/4 265/3/4
f 259/11/4 260/11/4 266/11/4
f 256/4/4 257/4/4 266/4/4
f 258/4/4 259/4/4 266/4/4
f 257/4/4 258/4/4 266/4/4
f 260/11/4 261/11/4 266/11/4
f 266/11/4 261/11/4 267/11/4
f 249/8/4 250/8/4 269/8/4
f 268/8/4 269/8/4 271/8/4
f 269/8/4 250/8/4 272/8/4
f 271/8/4 269/8/4 272/8/4
f 273/8/4 274/8/4 276/8/4
f 276/8/4 274/8/4 277/8/4
f 262/8/4 263/8/4 278/8/4
f 275/8/4 276/8/4 279/8/4
f 276/3/4 277/3/4 280/3/4
f 277/8/4 274/8/4 281/8/4
f 280/3/4 277/3/4 281/3/4
f 281/8/4 274/8/4 282/8/4
f 262/8/4 278/8/4 284/8/4
f 278/8/4 279/8/4 284/8/4
f 279/8/4 276/8/4 285/8/4
f 284/8/4 279/8/4 285/8/4
f 276/3/4 280/3/4 286/3/4
f 282/8/4 283/8/4 287/8/4
f 286/3/4 280/3/4 287/3/4
f 281/8/4 282/8/4 287/8/4
f 280/8/4 281/8/4 287/8/4
f 287/8/4 283/8/4 288/8/4
f 288/8/4 283/8/4 289/8/4
f 289/8/4 283/8/4 290/8/4
f 251/4/4 252/4/4 292/4/4
f 250/4/4 251/4/4 292/4/4
f 252/8/4 264/8/4 293/8/4
f 292/4/4 252/4/4 293/4/4
f 265/8/4 256/8/4 294/8/4
f 256/4/4 266/4/4 294/4/4
f 266/4/4 267/4/4 294/4/4
f 294/4/4 267/4/4 295/4/4
f 267/11/4 261/11/4 296/11/4
f 295/4/4 267/4/4 296/4/4
f 261/3/4 262/3/4 297/3/4
f 296/11/4 261/11/4 297/11/4
f 262/8/4 284/8/4 298/8/4
f 297/3/4 262/3/4 298/3/4
f 286/8/4 287/8/4 299/8/4
f 287/8/4 288/8/4 299/8/4
f 288/7/4 289/7/4 300/7/4
f 299/8/4 288/8/4 300/8/4
f 300/7/4 289/7/4 301/7/4
f 289/5/4 290/5/4 302/5/4
f 301/7/4 289/7/4 302/7/4
f 284/3/4 285/3/4 303/3/4
f 298/8/4 284/8/4 303/8/4
f 285/8/4 276/8/4 304/8/4
f 303/3/4 285/3/4 304/3/4
f 276/3/4 286/3/4 305/3/4
f 304/8/4 276/8/4 305/8/4
f 286/8/4 299/8/4 306/8/4
f 305/3/4 286/3/4 306/3/4
f 300/7/4 301/7/4 307/7/4
f 306/8/4 299/8/4 307/8/4
f 299/7/4 300/7/4 307/7/4
f 307/7/4 301/7/4 308/7/4
f 301/5/4 302/5/4 309/5/4
f 308/7/4 301/7/4 309/7/4
f 302/5/4 290/5/4 310/5/4
f 309/5/4 302/5/4 310/5/4
f 298/8/4 303/8/4 311/8/4
f 303/9/4 304/9/4 311/9/4
f 304/8/4 305/8/4 312/8/4
f 311/9/4 304/9/4 312/9/4
f 305/9/4 306/9/4 313/9/4
f 307/8/4 308/8/4 313/8/4
f 306/8/4 307/8/4 313/8/4
f 313/8/4 308/8/4 314/8/4
f 309/7/4 310/7/4 315/7/4
f 314/8/4 308/8/4 315/8/4
f 308/7/4 309/7/4 315/7/4
f 310/5/4 290/5/4 316/5/4
f 315/7/4 310/7/4 316/7/4
f 290/8/4 291/8/4 317/8/4
f 316/5/4 290/5/4 317/5/4
f 317/8/4 291/8/4 318/8/4
f 298/8/4 311/8/4 319/8/4
f 311/8/4 312/8/4 319/8/4
f 312/8/4 305/8/4 320/8/4
f 319/8/4 312/8/4 320/8/4
f 315/8/4 316/8/4 321/8/4
f 314/8/4 315/8/4 321/8/4
f 313/9/4 314/9/4 321/9/4
f 316/8/4 317/8/4 321/8/4
f 321/8/4 317/8/4 322/8/4
f 322/8/4 317/8/4 323/8/4
f 323/8/4 317/8/4 324/8/4
f 320/8/4 305/8/4 325/8/4
f 305/9/4 313/9/4 326/9/4
f 325/8/4 305/8/4 326/8/4
f 313/9/4 321/9/4 326/9/4
f 321/9/4 322/9/4 326/9/4
f 322/8/4 323/8/4 327/8/4
f 326/9/4 322/9/4 327/9/4
f 326/8/4 327/8/4 328/8/4
f 327/8/4 323/8/4 329/8/4
f 328/8/4 327/8/4 329/8/4
f 270/8/4 271/8/4 330/8/4
f 271/6/4 272/6/4 331/6/4
f 330/8/4 271/8/4 331/8/4
f 272/8/4 250/8/4 332/8/4
f 331/6/4 272/6/4 332/6/4
f 250/4/4 292/4/4 333/4/4
f 292/2/4 293/2/4 333/2/4
f 333/2/4 293/2/4 334/2/4
f 294/2/4 295/2/4 335/2/4
f 295/4/4 296/4/4 336/4/4
f 335/2/4 295/2/4 336/2/4
f 331/8/4 332/8/4 337/8/4
f 332/8/4 250/8/4 338/8/4
f 337/8/4 332/8/4 338/8/4
f 334/2/4 293/2/4 339/2/4
f 333/4/4 334/4/4 339/4/4
f 293/8/4 264/8/4 340/8/4
f 339/2/4 293/2/4 340/2/4
f 294/2/4 335/2/4 341/2/4
f 265/8/4 294/8/4 341/8/4
f 335/4/4 336/4/4 342/4/4
f 341/2/4 335/2/4 342/2/4
f 336/4/4 296/4/4 343/4/4
f 342/4/4 336/4/4 343/4/4
f 296/10/4 297/10/4 343/10/4
f 297/9/4 298/9/4 344/9/4
f 343/10/4 297/10/4 344/10/4
f 298/8/4 319/8/4 345/8/4
f 344/9/4 298/9/4 345/9/4
f 340/8/4 264/8/4 346/8/4
f 264/1/4 265/1/4 346/1/4
f 265/8/4 341/8/4 347/8/4
f 346/1/4 265/1/4 347/1/4
f 341/4/4 342/4/4 348/4/4
f 342/4/4 343/4/4 348/4/4
f 343/11/4 344/11/4 349/11/4
f 348/4/4 343/4/4 349/4/4
f 338/8/4 250/8/4 350/8/4
f 333/4/4 339/4/4 351/4/4
f 350/8/4 250/8/4 351/8/4
f 339/4/4 340/4/4 351/4/4
f 250/4/4 333/4/4 351/4/4
f 351/4/4 340/4/4 352/4/4
f 340/8/4 346/8/4 353/8/4
f 352/4/4 340/4/4 353/4/4
f 346/3/4 347/3/4 354/3/4
f 353/8/4 346/8/4 354/8/4
f 354/3/4 347/3/4 355/3/4
f 347/8/4 341/8/4 356/8/4
f 355/3/4 347/3/4 356/3/4
f 341/4/4 348/4/4 357/4/4
f 356/8/4 341/8/4 357/8/4
f 357/4/4 348/4/4 358/4/4
f 358/4/4 348/4/4 359/4/4
f 348/11/4 349/11/4 360/11/4
f 359/4/4 348/4/4 360/4/4
f 349/11/4 344/11/4 361/11/4
f 360/11/4 349/11/4 361/11/4
f 344/3/4 345/3/4 362/3/4
f 361/11/4 344/11/4 362/11/4
f 345/8/4 319/8/4 363/8/4
f 362/3/4 345/3/4 363/3/4
f 363/8/4 319/8/4 364/8/4
f 351/8/4 352/8/4 365/8/4
f 352/4/4 353/4/4 366/4/4
f 365/8/4 352/8/4 366/8/4
f 353/4/4 354/4/4 366/4/4
f 354/8/4 355/8/4 367/8/4
f 366/4/4 354/4/4 367/4/4
f 355/3/4 356/3/4 368/3/4
f 367/8/4 355/8/4 368/8/4
f 356/3/4 357/3/4 368/3/4
f 357/8/4 358/8/4 369/8/4
f 368/3/4 357/3/4 369/3/4
f 358/4/4 359/4/4 370/4/4
f 369/8/4 358/8/4 370/8/4
f 359/11/4 360/11/4 371/11/4
f 370/4/4 359/4/4 371/4/4
f 360/11/4 361/11/4 371/11/4
f 361/3/4 362/3/4 372/3/4
f 371/11/4 361/11/4 372/11/4
f 362/8/4 363/8/4 373/8/4
f 372/3/4 362/3/4 373/3/4
f 373/8/4 363/8/4 374/8/4
f 369/8/4 370/8/4 375/8/4
f 370/8/4 371/8/4 375/8/4
f 372/8/4 373/8/4 375/8/4
f 371/8/4 372/8/4 375/8/4
f 367/8/4 368/8/4 375/8/4
f 366/8/4 367/8/4 375/8/4
f 368/8/4 369/8/4 375/8/4
f 375/8/4 373/8/4 376/8/4
f 379/8/5 378/8/5 377/8/5
f 380/8/5 378/8/5 379/8/5
f 385/8/5 382/8/5 381/8/5
f 386/8/5 382/8/5 385/8/5
f 387/8/5 384/8/5 383/8/5
f 388/8/5 384/8/5 387/8/5
f 393/8/5 390/8/5 389/8/5
f 394/8/5 390/8/5 393/8/5
f 395/8/5 392/8/5 391/8/5
f 396/8/5 392/8/5 395/8/5
f 401/8/5 398/8/5 397/8/5
f 402/8/5 398/8/5 401/8/5
f 403/8/5 400/8/5 399/8/5
f 404/8/5 400/8/5 403/8/5
f 409/8/5 406/8/5 405/8/5
f 410/8/5 406/8/5 409/8/5
f 411/8/5 408/8/5 407/8/5
f 412/8/5 408/8/5 411/8/5
f 417/8/5 414/8/5 413/8/5
f 418/8/5 414/8/5 417/8/5
f 419/8/5 416/8/5 415/8/5
f 420/8/5 416/8/5 419/8/5
f 425/8/5 422/8/5 421/8/5
f 426/8/5 422/8/5 425/8/5
f 427/8/5 424/8/5 423/8/5
f 428/8/5 424/8/5 427/8/5
f 429/8/6 430/8/6 433/8/6
f 433/8/6 430/8/6 434/8/6
f 431/8/6 432/8/6 435/8/6
f 435/8/6 432/8/6 436/8/6
f 437/8/6 438/8/6 441/8/6
f 441/8/6 438/8/6 442/8/6
f 439/8/6 440/8/6 443/8/6
f 443/8/6 440/8/6 444/8/6
f 445/8/6 446/8/6 449/8/6
f 449/8/6 446/8/6 450/8/6
f 447/8/6 448/8/6 451/8/6
f 451/8/6 448/8/6 452/8/6
f 453/8/6 454/8/6 457/8/6
f 457/8/6 454/8/6 458/8/6
f 455/8/6 456/8/6 459/8/6
f 459/8/6 456/8/6 460/8/6
f 461/8/6 462/8/6 465/8/6
f 465/8/6 462/8/6 466/8/6
f 463/8/6 464/8/6 467/8/6
f 467/8/6 464/8/6 468/8/6
f 469/8/6 470/8/6 471/8/6
f 471/8/6 470/8/6 472/8/6
